<svg id="Camada_1" data-name="Camada 1" xmlns="http://www.w3.org/2000/svg" viewBox="0 0 500 500"><defs><style>.cls-1{fill:#fec928;}.cls-2{fill:#f9f9f9;}.cls-3{fill:#6d4c41;}</style></defs><circle class="cls-1" cx="250" cy="250" r="250"/><path class="cls-2" d="M249.58,279.78H406.12c9.84,0,15.59,3.87,17.74,11.57a15.71,15.71,0,0,1-.52,9.26c-20.93,64.89-64.25,107.16-130,124.5-80.21,21.15-165.17-17.68-203.8-91.21a191.23,191.23,0,0,1-13.6-33.55c-3.19-10.52,2.86-19.37,13.81-20.47,1.71-.17,3.45-.1,5.18-.1Z"/><path class="cls-3" d="M99,186.85c.82-31.53,26.78-56.87,59.32-57.92,30.31-1,57.85,23.46,60.71,53.9.28,3,.79,5.89.2,8.91-1.51,7.75-7.48,12.72-15.3,12.52a14.38,14.38,0,0,1-14.32-13.53c-.78-9.42-3.32-17.93-10.89-24.17-9.45-7.8-20.12-9.57-31.3-4.8-11,4.67-17.17,13.35-18.17,25.42-.88,10.67-6,16.74-14.57,17.07C104.85,204.62,98.69,197.78,99,186.85Z"/><path class="cls-3" d="M280,187.1c.75-31.6,26.33-56.78,59.08-58.15,30.33-1.27,58.1,23.35,61,54.1.27,3,.75,5.89.13,8.91-1.57,7.68-7.63,12.58-15.48,12.29A14.32,14.32,0,0,1,370.69,191c-.8-9.95-3.56-18.84-11.82-25.17-9.4-7.2-19.84-8.68-30.6-4s-16.92,13.24-17.94,25.1c-1,11.2-6.25,17.31-15.28,17.35C285.73,204.31,279.8,197.52,280,187.1Z"/></svg>